HIERARCHY
ROOT Hips
{
	OFFSET 0.00000 0.00000 0.00000
	CHANNELS 6 Xposition Yposition Zposition Zrotation Yrotation Xrotation 
	JOINT LHipJoint
	{
		OFFSET 0 0 0
		CHANNELS 3 Zrotation Yrotation Xrotation
		JOINT LeftUpLeg
		{
			OFFSET 1.28858 -1.83292 1.03970
			CHANNELS 3 Zrotation Yrotation Xrotation
			JOINT LeftLeg
			{
				OFFSET 2.47846 -6.80952 0.00000
				CHANNELS 3 Zrotation Yrotation Xrotation
				JOINT LeftFoot
				{
					OFFSET 2.75274 -7.56311 0.00000
					CHANNELS 3 Zrotation Yrotation Xrotation
					JOINT LeftToeBase
					{
						OFFSET 0.12848 -0.35301 1.68223
						CHANNELS 3 Zrotation Yrotation Xrotation
						End Site
						{
							OFFSET 0.00000 -0.00000 0.87311
						}
					}
				}
			}
		}
	}
	JOINT RHipJoint
	{
		OFFSET 0 0 0
		CHANNELS 3 Zrotation Yrotation Xrotation
		JOINT RightUpLeg
		{
			OFFSET -1.31183 -1.83292 1.03970
			CHANNELS 3 Zrotation Yrotation Xrotation
			JOINT RightLeg
			{
				OFFSET -2.44740 -6.72417 0.00000
				CHANNELS 3 Zrotation Yrotation Xrotation
				JOINT RightFoot
				{
					OFFSET -2.67343 -7.34519 0.00000
					CHANNELS 3 Zrotation Yrotation Xrotation
					JOINT RightToeBase
					{
						OFFSET -0.16914 -0.46471 1.77626
						CHANNELS 3 Zrotation Yrotation Xrotation
						End Site
						{
							OFFSET -0.00000 -0.00000 0.92777
						}
					}
				}
			}
		}
	}
	JOINT LowerBack
	{
		OFFSET 0 0 0
		CHANNELS 3 Zrotation Yrotation Xrotation
		JOINT Spine
		{
			OFFSET 0.01249 2.14252 0.03842
			CHANNELS 3 Zrotation Yrotation Xrotation
			JOINT Spine1
			{
				OFFSET -0.02957 2.14199 -0.03751
				CHANNELS 3 Zrotation Yrotation Xrotation
				JOINT Neck
				{
					OFFSET 0 0 0
					CHANNELS 3 Zrotation Yrotation Xrotation
					JOINT Neck1
					{
						OFFSET -0.01678 1.65709 -0.05476
						CHANNELS 3 Zrotation Yrotation Xrotation
						JOINT Head
						{
							OFFSET 0.07912 1.58331 -0.11843
							CHANNELS 3 Zrotation Yrotation Xrotation
							End Site
							{
								OFFSET 0.03298 1.73940 -0.04271
							}
						}
					}
				}
				JOINT LeftShoulder
				{
					OFFSET 0 0 0
					CHANNELS 3 Zrotation Yrotation Xrotation
					JOINT LeftArm
					{
						OFFSET 3.39556 1.16496 0.08673
						CHANNELS 3 Zrotation Yrotation Xrotation
						JOINT LeftForeArm
						{
							OFFSET 5.23910 -0.00000 -0.00000
							CHANNELS 3 Zrotation Yrotation Xrotation
							JOINT LeftHand
							{
								OFFSET 3.31467 -0.00000 0.00000
								CHANNELS 3 Zrotation Yrotation Xrotation
								JOINT LeftFingerBase
								{
									OFFSET 0 0 0
									CHANNELS 3 Zrotation Yrotation Xrotation
									JOINT LeftHandIndex1
									{
										OFFSET 0.96590 -0.00000 0.00000
										CHANNELS 3 Zrotation Yrotation Xrotation
										End Site
										{
											OFFSET 0.77873 -0.00000 0.00000
										}
									}
								}
								JOINT LThumb
								{
									OFFSET 0 0 0
									CHANNELS 3 Zrotation Yrotation Xrotation
									End Site
									{
										OFFSET 0.79062 -0.00000 0.79062
									}
								}
							}
						}
					}
				}
				JOINT RightShoulder
				{
					OFFSET 0 0 0
					CHANNELS 3 Zrotation Yrotation Xrotation
					JOINT RightArm
					{
						OFFSET -3.27193 1.31331 0.33940
						CHANNELS 3 Zrotation Yrotation Xrotation
						JOINT RightForeArm
						{
							OFFSET -5.30252 -0.00000 0.00000
							CHANNELS 3 Zrotation Yrotation Xrotation
							JOINT RightHand
							{
								OFFSET -3.67875 -0.00000 0.00000
								CHANNELS 3 Zrotation Yrotation Xrotation
								JOINT RightFingerBase
								{
									OFFSET 0 0 0
									CHANNELS 3 Zrotation Yrotation Xrotation
									JOINT RightHandIndex1
									{
										OFFSET -0.59481 -0.00000 0.00000
										CHANNELS 3 Zrotation Yrotation Xrotation
										End Site
										{
											OFFSET -0.47955 -0.00000 0.00000
										}
									}
								}
								JOINT RThumb
								{
									OFFSET 0 0 0
									CHANNELS 3 Zrotation Yrotation Xrotation
									End Site
									{
										OFFSET -0.48687 -0.00000 0.48687
									}
								}
							}
						}
					}
				}
			}
		}
	}
}
MOTION
Frames: 7
Frame Time: .0083333
6.2033 7.6626 3.7678 -13.0173 20.6815 -23.2555 0.0000 0.0000 0.0000 -10.7306 -14.7094 -57.8404 1.7563 8.3388 23.7480 39.5358 14.5097 165.1429 3.3116 11.1832 32.9002 0.0000 0.0000 0.0000 -12.9550 11.5954 -71.0731 -0.2031 -2.9018 8.0056 -1.2059 -14.3854 -30.3483 -0.1491 -2.4883 6.8572 2.2765 -1.3523 27.5056 1.8873 -0.8202 9.3884 1.0066 -0.3291 -4.7286 -0.6127 -5.1880 -12.5350 7.2476 -6.7601 -5.0042 2.0942 -3.2327 0.8296 0.0000 -0.0000 0.0000 33.5051 -33.4954 -86.5375 9.3313 -15.6869 -1.2882 -0.0000 0.0000 -27.9712 41.0090 -7.5648 -6.5306 -7.1250 0.0000 -0.0000 10.1397 20.0724 -6.1396 0.0000 -0.0000 0.0000 8.6701 9.5529 -82.3360 -14.2901 23.1479 -2.9412 0.0000 -0.0000 -40.6350 -18.3285 -36.7048 11.1996 7.1250 -0.0000 -0.0000 21.2212 -66.9793 -11.4447
6.1566 7.5198 3.7220 -13.0342 20.6768 -24.0117 0.0000 0.0000 0.0000 -10.0153 -15.9119 -59.2684 1.6297 8.0480 22.8599 39.6563 13.5984 166.7013 3.1595 10.9489 32.1078 0.0000 0.0000 0.0000 -13.4903 11.8625 -71.1791 -0.2956 -3.4958 9.6622 -1.3795 -14.6530 -31.6978 -0.2708 -3.3475 9.2478 2.0750 -1.3543 28.8288 1.8611 -0.8222 9.9561 1.1117 -0.3236 -4.7150 -0.5579 -5.1766 -11.7752 7.5351 -6.6255 -6.8370 2.2264 -3.2209 0.1167 -0.0000 -0.0000 0.0000 32.7823 -32.2033 -90.6737 9.2239 -15.5165 -1.2593 -0.0000 0.0000 -29.5504 43.3679 -6.6777 -6.2683 -7.1250 0.0000 -0.0000 11.9391 20.9118 -7.0431 -0.0000 -0.0000 0.0000 8.8200 9.4263 -87.3304 -13.9617 22.6800 -2.8133 0.0000 -0.0000 -39.5567 -21.0883 -36.7708 12.9988 7.1250 -0.0000 -0.0000 17.9978 -67.8680 -10.0180
6.1112 7.3860 3.6827 -12.8076 20.6907 -24.8381 0.0000 0.0000 0.0000 -9.3013 -17.4065 -60.1355 1.5096 7.7597 21.9864 39.8443 13.6336 168.6317 3.0075 10.7073 31.2988 0.0000 0.0000 0.0000 -14.3052 12.2124 -71.4494 -0.4694 -4.3944 12.1889 -1.5187 -14.6580 -32.5525 -0.5548 -4.7711 13.2570 1.6024 -1.2969 30.2251 1.7685 -0.8319 10.4949 1.3037 -0.3262 -4.7487 -0.7488 -5.1289 -10.9585 8.0921 -6.4179 -8.4190 2.5004 -3.1640 -0.5031 0.0000 -0.0000 0.0000 31.9605 -31.3472 -95.9169 9.4115 -15.8137 -1.3100 -0.0000 0.0000 -29.9622 44.2244 -6.0652 -5.8715 -7.1250 0.0000 -0.0000 12.6529 21.6175 -7.2770 0.0000 -0.0000 0.0000 8.9578 9.6456 -92.2421 -13.6908 22.2910 -2.7097 0.0000 -0.0000 -37.6610 -24.0565 -36.8900 15.0012 7.1250 -0.0000 -0.0000 14.4074 -68.8970 -8.3171
6.0658 7.2625 3.6474 -12.4324 20.6611 -25.5786 0.0000 0.0000 0.0000 -8.5087 -19.0698 -60.7297 1.4243 7.5469 21.3460 40.0588 14.0678 170.8374 2.8489 10.4463 30.4343 0.0000 0.0000 0.0000 -15.4752 12.6630 -72.7450 -0.8246 -5.7939 16.1875 -1.3674 -15.4498 -32.3456 -0.6270 -5.0671 14.1000 0.9748 -1.1133 31.3668 1.6710 -0.7468 11.0665 1.5426 -0.2873 -4.6122 -0.7052 -5.1602 -10.2896 8.3157 -6.3605 -9.7674 2.6188 -3.1835 -1.0429 -0.0000 -0.0000 0.0000 31.0572 -31.0809 -101.4535 9.9565 -16.6715 -1.4624 -0.0000 0.0000 -29.6749 49.3980 -9.2257 -10.5942 -7.1250 0.0000 -0.0000 15.4406 16.2767 -10.9014 -0.0000 -0.0000 0.0000 9.9063 9.1102 -92.0748 -13.6208 22.1900 -2.6832 0.0000 -0.0000 -39.8995 -27.0957 -37.0219 17.1222 7.1250 -0.0000 -0.0000 10.5032 -69.9911 -6.2991
6.0213 7.1543 3.6153 -11.8904 20.7933 -26.1921 0.0000 0.0000 0.0000 -7.9757 -20.8379 -61.1735 1.3601 7.3819 20.8517 40.2726 14.5527 173.2797 3.0198 10.7270 31.3645 0.0000 0.0000 0.0000 -12.3025 11.6137 -74.6733 -1.3990 -7.4824 21.1526 -0.9393 -13.1366 -27.3272 -0.5082 -4.5696 12.6849 0.1628 -0.8681 32.3636 1.5209 -0.6593 11.4977 1.8264 -0.2530 -4.5571 -0.5703 -5.2005 -9.7923 8.4546 -6.3718 -10.4269 2.6740 -3.2219 -1.3383 0.0000 0.0000 0.0000 30.1179 -31.1557 -104.7787 10.4183 -17.3912 -1.5977 -0.0000 0.0000 -30.3207 49.6796 -10.1369 -11.7161 -7.1250 0.0000 -0.0000 15.4001 14.8981 -11.3473 0.0000 0.0000 0.0000 10.6075 9.0639 -93.5259 -13.4723 21.9753 -2.6274 0.0000 -0.0000 -39.2874 -28.3540 -37.3813 18.1407 7.1250 -0.0000 -0.0000 9.1335 -70.7543 -5.6276
5.9720 7.0622 3.5884 -11.5706 20.8595 -26.7364 0.0000 0.0000 0.0000 -7.3700 -22.4280 -61.7808 1.2867 7.1879 20.2733 40.4278 14.7076 175.5896 3.4327 11.3646 33.5196 0.0000 0.0000 0.0000 -10.2170 11.1103 -76.3046 -2.0799 -9.0305 25.8909 -0.5513 -10.5356 -21.5505 -1.0881 -6.6293 18.6218 -0.6110 -0.7254 33.5913 1.5805 -0.7081 11.4367 2.2003 -0.2998 -4.5597 -1.1816 -5.1100 -9.5337 9.1370 -6.1664 -10.4377 3.0262 -3.1109 -1.3519 -0.0000 -0.0000 0.0000 28.8931 -30.8629 -106.0402 10.5268 -17.5594 -1.6303 -0.0000 0.0000 -31.3540 50.2996 -10.9808 -12.9218 -7.1250 0.0000 -0.0000 15.5840 13.5135 -11.9716 -0.0000 -0.0000 0.0000 10.6650 9.9950 -96.8444 -13.2119 21.5969 -2.5308 0.0000 -0.0000 -35.7416 -27.4061 -37.8907 17.6631 7.1250 -0.0000 -0.0000 11.0639 -70.9405 -6.8712
5.9184 6.9882 3.5670 -11.4936 20.6984 -27.1388 0.0000 0.0000 0.0000 -6.5699 -23.7464 -62.5069 1.2203 7.0069 19.7357 40.5045 15.0804 176.4654 3.5031 11.4681 33.8753 0.0000 0.0000 0.0000 -8.8136 11.1455 -77.8051 -2.8512 -10.4501 30.4470 -0.3422 -8.0415 -16.7894 -2.0474 -8.9640 25.6829 -1.2338 -0.5638 34.0123 1.6957 -0.6898 11.7414 2.6459 -0.3121 -4.3761 -1.9397 -5.0179 -9.2273 9.9144 -5.9421 -10.4947 3.4481 -2.9891 -1.3855 -0.0000 -0.0000 0.0000 27.7468 -30.6042 -106.7864 10.3743 -17.3229 -1.5846 -0.0000 0.0000 -31.4661 50.3764 -11.7102 -13.7734 -7.1250 0.0000 -0.0000 15.4515 12.4423 -12.2229 -0.0000 -0.0000 0.0000 11.6483 10.2358 -94.0635 -13.1535 21.5118 -2.5093 0.0000 -0.0000 -37.5076 -26.2128 -37.9372 16.8404 7.1250 -0.0000 -0.0000 12.7777 -70.5923 -7.8475
